<svg xmlns="http://www.w3.org/2000/svg" viewBox="0 0 100 100" fill="none">
  <defs>
    <linearGradient id="tulipGrad" x1="20" y1="20" x2="80" y2="80" gradientUnits="userSpaceOnUse">
      <stop offset="0%" stop-color="#52b788"/>
      <stop offset="50%" stop-color="#2d6a4f"/>
      <stop offset="100%" stop-color="#1b4332"/>
    </linearGradient>
    <linearGradient id="petalGlow" x1="50" y1="15" x2="50" y2="65" gradientUnits="userSpaceOnUse">
      <stop offset="0%" stop-color="#74c69d"/>
      <stop offset="100%" stop-color="#2d6a4f"/>
    </linearGradient>
  </defs>
  <circle cx="50" cy="50" r="46" fill="#0c2317" stroke="#1f4f39" stroke-width="2"/>
  <!-- Stem -->
  <path d="M50 55 Q50 72 49 84" stroke="#52b788" stroke-width="3.5" stroke-linecap="round"/>
  <!-- Leaves -->
  <path d="M49 72 Q38 68 34 56 Q44 60 49 68" fill="#40916c" opacity="0.9"/>
  <path d="M50 75 Q62 70 66 58 Q56 62 50 71" fill="#2d6a4f" opacity="0.9"/>
  <!-- Center Petal -->
  <path d="M50 20 C42 30 40 46 50 62 C60 46 58 30 50 20 Z" fill="url(#petalGlow)"/>
  <!-- Left Petal -->
  <path d="M46 22 C34 26 28 38 33 54 C38 62 46 63 47 61 C42 48 42 35 46 22 Z" fill="url(#tulipGrad)" opacity="0.95"/>
  <!-- Right Petal -->
  <path d="M54 22 C66 26 72 38 67 54 C62 62 54 63 53 61 C58 48 58 35 54 22 Z" fill="url(#tulipGrad)" opacity="0.95"/>
</svg>
